<svg width="84" height="84" viewBox="0 0 84 84" fill="none" xmlns="http://www.w3.org/2000/svg">
<circle cx="42" cy="42" r="42" fill="#FEBC12"/>
<path d="M42.7536 27.9136L47.6653 30.8986C48.4177 31.3559 48.9313 32.1207 49.0698 32.9902L53.4326 60.3703C53.589 61.352 52.92 62.2746 51.9382 62.4311L38.3064 64.6032C37.3247 64.7596 36.402 64.0906 36.2456 63.1088L31.8829 35.7288C31.7443 34.8592 31.9948 33.9727 32.5678 33.3042L36.3085 28.9405L42.7536 27.9136ZM35.2343 29.1117L34.1727 22.4492C34.1414 22.2528 34.2752 22.0683 34.4716 22.037L42.354 20.781C42.5504 20.7498 42.7349 20.8836 42.7662 21.0799L43.8278 27.7424L35.2343 29.1117Z" stroke="#314A2A" stroke-width="2"/>
</svg>
