<svg width="84" height="84" viewBox="0 0 84 84" fill="none" xmlns="http://www.w3.org/2000/svg">
<circle cx="42" cy="42" r="42" fill="#F9F9ED"/>
<path d="M58.713 40.8453C58.8272 42.3647 58.8824 43.9579 58.5338 45.5377C58.0089 47.9155 57.3645 50.2559 56.369 52.4913C55.8102 53.7464 55.1701 54.9516 54.3184 56.037C52.7026 58.0959 50.6036 59.4512 48.0998 60.2176C47.158 60.5058 46.1881 60.6574 45.2193 60.8104C43.7652 61.0396 42.3058 61.2367 40.8518 61.4684C39.6756 61.6554 38.5044 61.8751 37.3302 62.076C36.6484 62.193 36.1027 62.5028 35.7614 63.1201C35.5517 63.4994 35.2365 63.7613 34.8404 63.9407C34.179 64.2404 33.5965 64.6682 32.984 65.049C32.4698 65.3689 31.9982 65.7334 31.5236 66.1008C31.3968 66.1991 31.2515 66.2859 31.1014 66.3406C30.8496 66.4322 30.5562 66.178 30.6172 65.9195C30.6535 65.766 30.7266 65.614 30.8148 65.4821C30.9692 65.2509 31.1464 65.0341 31.3174 64.814C32.0277 63.8989 32.5066 62.8803 32.7201 61.7432C32.8828 60.8789 33.0498 60.0152 33.2038 59.1495C33.6958 56.3856 34.4051 53.6793 35.3876 51.0453C36.1284 49.0584 37.0629 47.1707 38.3886 45.4974C39.6689 43.8812 41.1578 42.4923 42.9876 41.4875C43.8509 41.0132 44.7709 40.6852 45.7054 40.3864C47.1197 39.9346 48.399 39.2253 49.5989 38.3678C49.8071 38.2186 50.0128 38.0656 50.2119 37.9049C51.3192 37.011 52.6159 36.5957 54.0119 36.4455C54.6684 36.375 55.3182 36.447 55.9545 36.6225C56.8348 36.8652 57.4913 37.3841 57.9106 38.1908C58.3324 39.0018 58.5711 39.8689 58.713 40.8453ZM33.5384 64.1114C33.8696 63.9531 34.193 63.7743 34.5344 63.6424C34.9895 63.4668 35.3304 63.1896 35.5808 62.7695C35.8887 62.2535 36.3555 61.9005 36.9293 61.7178C37.551 61.5192 38.177 61.3173 38.8157 61.1897C40.6479 60.8238 42.4879 60.4938 44.3245 60.1509C45.3355 59.962 46.345 59.7581 47.311 59.4047C49.5417 58.5884 51.3599 57.2225 52.7442 55.3027C53.4667 54.3013 54.0564 53.2251 54.5668 52.1028C55.509 50.031 56.2527 47.8887 56.9214 45.7175C57.3199 44.4236 57.532 43.1038 57.5504 41.7551C57.5625 40.8756 57.5117 40.006 57.2613 39.1442C56.9214 37.9745 56.1695 37.3544 54.9691 37.2282C54.8302 37.2139 54.6897 37.1971 54.5508 37.2014C53.1413 37.2474 51.8325 37.5841 50.6941 38.4613C50.2535 38.8008 49.7969 39.1423 49.2982 39.3821C48.1027 39.9571 46.9072 40.5389 45.6328 40.9384C45.1892 41.0775 44.7559 41.2568 44.3317 41.4487C42.7261 42.1757 41.4367 43.2975 40.3158 44.6279C39.0743 46.1017 38.1669 47.7683 37.4648 49.5442C36.6639 51.5705 35.9778 53.6361 35.4234 55.7434C35.0162 57.2911 34.778 58.8699 34.5092 60.4435C34.2986 61.6765 34.088 62.9091 33.5384 64.1114Z" fill="#314A2A"/>
<path d="M38.7627 27.7673C38.9254 29.3931 38.9429 31.0079 38.6678 32.6193C38.4253 34.0399 37.8612 35.3247 36.9605 36.4542C36.5848 36.9256 36.1723 37.3702 35.7486 37.8009C35.1613 38.3975 34.5463 38.9668 33.9469 39.5514C33.6636 39.8276 33.3944 40.1173 33.1092 40.3911C32.1791 41.2837 31.5825 42.3656 31.2102 43.5857C30.9807 44.3382 30.7119 45.0787 30.4689 45.8273C30.3686 46.1362 30.2936 46.4503 30.3924 46.7798C30.418 46.8652 30.4127 46.9649 30.3991 47.0546C30.3594 47.316 30.0747 47.493 29.8215 47.398C29.6728 47.3419 29.5223 47.258 29.409 47.1496C29.2085 46.9573 29.0192 46.7486 28.855 46.5247C27.8101 45.0979 27.1303 43.5104 26.7681 41.7882C26.6287 41.1254 26.6393 40.4545 26.7081 39.783C26.7807 39.0699 26.8654 38.3567 26.91 37.6416C27.0054 36.1045 26.8107 34.5919 26.467 33.0946C26.1246 31.6055 25.7058 30.1331 25.4714 28.62C25.1359 26.4537 25.0787 24.2878 25.4879 22.1253C25.5736 21.6721 25.699 21.2237 25.8351 20.7825C26.0762 20.0022 26.5527 19.383 27.2349 18.9274C28.3616 18.1754 29.5944 17.7111 30.9608 17.645C31.9011 17.5994 32.7698 17.8469 33.5416 18.3792C34.8625 19.29 35.9747 20.3978 36.7683 21.7997C37.4239 22.9574 37.9081 24.1837 38.2427 25.4657C38.4412 26.2263 38.5909 26.9994 38.7627 27.7673ZM30.2055 46.0158C30.5667 44.7065 30.9027 43.5531 31.1971 42.3896C31.3424 41.816 31.5675 41.2937 31.9374 40.8357C32.5354 40.0952 33.147 39.3663 33.7469 38.6277C34.3759 37.8531 35.0359 37.0997 35.6135 36.2887C36.5044 35.0384 36.9993 33.627 37.1707 32.1018C37.4646 29.4866 37.1886 26.9309 36.3781 24.4298C36.0057 23.2807 35.5181 22.1819 34.8354 21.1757C34.297 20.3825 33.6612 19.6789 32.8816 19.1101C32.3205 18.7006 31.6949 18.4593 30.9918 18.4814C29.7997 18.5183 28.6948 18.8559 27.6833 19.4847C27.1095 19.841 26.6945 20.3336 26.4795 20.97C26.3319 21.4074 26.191 21.8524 26.1057 22.3047C25.6351 24.7952 25.7097 27.28 26.3139 29.7374C26.6229 30.994 27.0223 32.2289 27.3816 33.4735C27.8063 34.9444 28.1592 36.4287 28.2014 37.9678C28.2164 38.5222 28.2154 39.0775 28.2106 39.6324C28.2038 40.3782 28.2992 41.1096 28.4987 41.8271C28.8589 43.1239 29.3538 44.3703 29.9469 45.5794C29.9958 45.6796 30.0602 45.7722 30.2055 46.0158Z" fill="#314A2A"/>
<path d="M42.4287 46.3467C42.6534 46.5218 42.666 46.7798 42.7047 47.0287C42.7977 47.6229 42.8921 48.2172 42.9909 48.8104C43.0127 48.9404 43.0558 49.067 43.0814 49.1663C43.2824 49.2397 43.3434 49.1193 43.4097 49.0373C44.2643 47.975 45.3078 47.1261 46.4621 46.4091C47.8905 45.5218 49.2225 44.5152 50.4795 43.4016C51.1221 42.8323 51.8261 42.3311 52.5073 41.805C52.6657 41.6827 52.8318 41.5426 53.1131 41.6688C53.0119 41.794 52.9417 41.9086 52.8458 41.9959C51.9176 42.8409 50.9957 43.6931 50.0505 44.5195C49.2453 45.2231 48.4173 45.9007 47.5893 46.5774C46.9216 47.1232 46.267 47.6805 45.7281 48.3567C45.5867 48.5342 45.4618 48.725 45.2807 48.9773C45.4661 49.0037 45.5717 49.0401 45.6733 49.0306C46.9284 48.9107 48.183 48.7855 49.4375 48.6584C49.667 48.6354 49.8951 48.5984 50.1009 48.5711C50.2176 48.749 50.1314 48.8344 50.0278 48.8838C49.8404 48.973 49.6486 49.0646 49.4482 49.1121C48.0367 49.4473 46.6088 49.6699 45.1523 49.6809C45.0599 49.6814 44.9679 49.6948 44.8289 49.7058C44.1626 50.7835 43.7317 51.9637 43.3855 53.2543C44.0091 53.2735 44.5655 53.298 45.1223 53.3066C46.1493 53.322 47.1763 53.3244 48.2033 53.3411C48.3868 53.344 48.5727 53.3809 48.7524 53.4241C48.8865 53.4562 48.9233 53.6812 48.8052 53.7651C48.6764 53.8567 48.533 53.9478 48.3824 53.9852C48.1578 54.0409 47.9215 54.0644 47.6891 54.0744C46.2205 54.1377 44.7509 54.25 43.2853 54.0289C43.2427 54.0226 43.1957 54.0452 43.1105 54.0624C43.0349 54.2269 42.9463 54.4121 42.8635 54.6001C41.6467 57.3702 39.6388 59.3807 36.8991 60.6861C36.7103 60.7758 36.5147 60.8636 36.3128 60.9106C35.83 61.0223 35.4688 60.6257 35.6518 60.1667C35.7434 59.9375 35.9036 59.7202 36.0789 59.5423C36.3554 59.2622 36.674 59.0229 36.9689 58.7601C37.5935 58.2037 38.2336 57.6628 38.8326 57.0801C39.7603 56.1775 40.4488 55.1065 40.9495 53.919C41.1654 53.4068 41.3514 52.8822 41.5697 52.3714C41.8249 51.7757 42.0849 51.1811 42.375 50.6017C42.5072 50.3379 42.5444 50.1058 42.4834 49.8118C42.343 49.1332 42.236 48.4459 42.1542 47.7577C42.1135 47.4172 42.1537 47.0661 42.1687 46.7203C42.1731 46.6 42.2162 46.5611 42.4287 46.3467Z" fill="#314A2A"/>
<path d="M53.9363 45.3309C53.9096 45.41 53.9058 45.5122 53.852 45.5597C53.7523 45.6489 53.6317 45.7309 53.5053 45.7736C53.1122 45.9064 52.7175 46.0426 52.3127 46.1304C52.1215 46.1721 51.9026 46.1218 51.7036 46.08C51.646 46.068 51.5923 45.9438 51.5777 45.8637C51.5685 45.8148 51.6266 45.7405 51.6731 45.6978C51.7215 45.6537 51.7898 45.6167 51.8542 45.6057C52.4914 45.494 53.1301 45.387 53.7687 45.2829C53.8084 45.2767 53.854 45.3064 53.9363 45.3309Z" fill="#314A2A"/>
<path d="M51.4589 52.1273C51.1355 52.1388 50.8551 52.1661 50.5772 52.1517C50.4494 52.145 50.3191 52.0688 50.2029 52.0026C50.1138 51.9517 50.1409 51.7494 50.2339 51.7047C50.2954 51.6755 50.3617 51.6386 50.4271 51.6362C50.9612 51.6199 51.4957 51.6108 52.0298 51.6007C52.0521 51.6002 52.0816 51.605 52.0952 51.6194C52.1538 51.6817 52.2521 51.7484 52.2511 51.8127C52.2506 51.8808 52.1678 51.9786 52.0971 52.0093C51.9722 52.0635 51.8293 52.0808 51.6928 52.1047C51.6018 52.1215 51.5078 52.123 51.4589 52.1273Z" fill="#314A2A"/>
<path d="M39.3442 52.638C39.1908 52.5527 39.0528 52.5143 38.9738 52.4251C38.6518 52.0592 38.4315 51.6323 38.2829 51.17C38.2698 51.1292 38.2659 51.0741 38.2829 51.0372C38.31 50.9796 38.3492 50.9086 38.401 50.888C38.4509 50.8679 38.5351 50.8885 38.5841 50.9211C38.6373 50.9571 38.6761 51.0228 38.7051 51.0837C38.9128 51.5163 39.1186 51.9498 39.3186 52.3858C39.3442 52.4409 39.3331 52.5129 39.3442 52.638Z" fill="#314A2A"/>
<path d="M29.9103 40.5466C29.8435 40.3945 29.7873 40.3192 29.7796 40.2396C29.7495 39.9413 29.7089 39.6401 29.719 39.3418C29.7868 37.4148 30.1524 35.53 30.6071 33.6629C30.732 33.1503 30.9257 32.6419 31.1658 32.1709C31.6437 31.2343 31.696 30.2703 31.4936 29.2459C30.1722 28.5428 29.3239 27.3908 28.6049 26.1295C28.2844 25.5669 27.9996 24.9833 27.7106 24.4034C27.6331 24.2476 27.6375 24.0855 27.9033 24.0063C28.1178 24.2284 28.1996 24.5497 28.3734 24.812C28.5395 25.0629 28.6756 25.3329 28.8349 25.589C29.0063 25.8647 29.1806 26.1386 29.3675 26.4038C29.5544 26.669 29.752 26.9275 29.9568 27.1798C30.1471 27.4138 30.3412 27.6464 30.5557 27.8584C30.7765 28.0771 30.9678 28.3423 31.3552 28.4948C31.3411 28.2901 31.3411 28.1596 31.3217 28.0325C31.2481 27.552 31.159 27.0743 31.0942 26.5928C31.0574 26.3184 31.0491 26.0398 31.0428 25.7631C31.0404 25.6504 31.0622 25.5314 31.099 25.4245C31.1862 25.1737 31.4864 25.1036 31.6568 25.3051C31.79 25.4619 31.8883 25.6494 31.9943 25.8278C32.0974 26.0019 32.1909 26.1822 32.3337 26.4422C32.4494 26.1443 32.5313 25.9362 32.6112 25.7271C32.9177 24.9271 33.2174 24.1253 33.5341 23.3296C33.5999 23.1642 33.7132 23.0102 33.8328 22.8754C33.8769 22.826 34.0173 22.8179 34.0885 22.8491C34.1572 22.8788 34.209 22.9771 34.239 23.0562C34.2618 23.1157 34.2497 23.1953 34.2328 23.261C33.9911 24.201 33.826 25.1645 33.4237 26.0575C33.215 26.5204 32.969 26.9673 32.693 27.5131C32.7429 27.7073 32.8237 27.9946 32.8901 28.2853C33.0087 28.8037 33.1351 29.3212 33.2266 29.8444C33.3104 30.3235 33.3307 30.8098 33.2484 31.2952C33.2305 31.4012 33.2334 31.5105 33.2208 31.7081C33.4106 31.5781 33.5249 31.5072 33.6309 31.4261C33.9456 31.1868 34.2531 30.9379 34.5717 30.7038C34.7208 30.5945 34.8826 30.4967 35.0515 30.4223C35.1987 30.3576 35.3692 30.3168 35.5072 30.4559C35.6103 30.5595 35.5769 30.7825 35.3982 30.9489C34.7349 31.5662 34.0676 32.1796 33.3859 32.7767C33.2159 32.9253 32.9985 33.0524 32.7821 33.1085C32.5211 33.1762 32.3792 33.3277 32.2838 33.5464C32.0902 33.9919 31.8999 34.4389 31.7183 34.8893C31.4244 35.6192 31.1702 36.3669 30.8409 37.0801C30.4357 37.9572 30.2289 38.8718 30.1568 39.8243C30.1398 40.0502 30.1722 40.2876 29.9103 40.5466Z" fill="#314A2A"/>
<path d="M30.5292 22.9843C30.3815 22.9296 30.2474 22.9195 30.1801 22.8481C29.8319 22.4793 29.4939 22.0999 29.1681 21.7114C29.1017 21.6323 29.0877 21.4995 29.0746 21.3887C29.0591 21.2601 29.2441 21.1364 29.3695 21.1796C29.4131 21.1944 29.4678 21.2021 29.4964 21.2323C29.9065 21.6716 30.303 22.1224 30.5432 22.6807C30.5727 22.7512 30.5374 22.849 30.5292 22.9843Z" fill="#314A2A"/>
<path d="M27.6734 29.8276C28.115 29.8453 28.4985 29.9168 28.8267 30.1633C28.8689 30.1949 28.895 30.2908 28.88 30.3431C28.8645 30.3959 28.7846 30.4721 28.7391 30.4678C28.3697 30.4362 27.9988 30.4007 27.6342 30.3364C27.532 30.3187 27.4279 30.1949 27.4792 30.0669C27.517 29.9724 27.6119 29.9 27.6734 29.8276Z" fill="#314A2A"/>
<path d="M35.4637 26.9285C35.4879 27.106 35.5267 27.199 35.5063 27.2767C35.424 27.5957 35.226 27.8479 34.9849 28.0657C34.8677 28.1716 34.7316 28.1654 34.6072 28.0719C34.4794 27.976 34.445 27.8345 34.5268 27.7088C34.7384 27.3827 35.0052 27.1103 35.4637 26.9285Z" fill="#314A2A"/>
<path d="M31.7262 22.6903C31.6526 22.6131 31.5529 22.557 31.5417 22.4875C31.4832 22.1215 31.489 21.7556 31.6265 21.4031C31.6347 21.3825 31.6478 21.3576 31.6657 21.3484C31.7257 21.3192 31.7906 21.2727 31.8502 21.2775C31.9088 21.2823 31.9872 21.3302 32.0119 21.3811C32.0506 21.4607 32.0792 21.5628 32.0642 21.6472C32.0022 21.9968 32.0676 22.3906 31.7262 22.6903Z" fill="#314A2A"/>
<path d="M34.7171 35.7505C34.5021 35.9783 34.3535 36.1476 34.1893 36.3011C34.154 36.3342 34.0523 36.3337 34.0034 36.3073C33.9535 36.2805 33.9128 36.2066 33.9017 36.1471C33.8906 36.0853 33.9027 36.0071 33.9337 35.9524C34.077 35.7006 34.214 35.6604 34.7171 35.7505Z" fill="#314A2A"/>
</svg>
