<svg width="84" height="84" viewBox="0 0 84 84" fill="none" xmlns="http://www.w3.org/2000/svg">
<circle cx="42" cy="42" r="42" fill="#E58425"/>
<path d="M56.2294 62.6396C56.2401 62.6061 56.2461 62.579 56.2562 62.54C56.4276 61.8819 56.4521 61.4875 56.4377 60.8072C56.4225 60.0908 56.2818 59.5959 56.1572 58.9944L56.1146 58.788C55.9152 57.8197 55.7387 56.794 56.5157 56.034C57.3343 55.2342 58.3246 54.7426 58.9263 53.7178C59.5393 52.6749 59.7418 51.4061 59.5962 50.2125C59.4425 48.9496 58.9214 47.7687 58.1821 46.7452C57.8545 46.2917 57.5001 45.8594 57.1152 45.4543C56.6828 44.9989 56.1738 44.6096 55.7692 44.1285C54.9563 43.1639 55.6132 41.987 56.3257 41.1767C57.1376 40.2533 58.0709 39.4376 58.6113 38.306C59.5348 36.3691 59.5312 34.0996 58.6933 32.1337C58.2869 31.1795 57.669 30.2946 56.867 29.6382C56.0411 28.9629 55.0849 28.5053 54.2076 27.9091C53.2882 27.2849 52.7334 26.4652 52.8365 25.3077C52.9575 23.9593 53.7241 22.7466 54.2108 21.5132C55.0993 19.259 54.9371 16.6209 53.415 14.6791C52.0367 12.9201 49.488 12.1008 47.3861 12.9192C46.2968 13.3429 45.4858 14.1685 44.647 14.9561C44.276 15.3042 43.9 15.6396 43.4551 15.8886C42.8605 16.2217 42.1906 16.2679 41.5279 16.3412C41.3075 16.3656 41.0942 16.4005 40.8849 16.4394L39.6661 16.7631C35.6263 18.1862 34.0329 22.3411 33.2564 23.0504C32.3517 23.8769 31.2459 24.4441 30.3201 25.2484C28.4669 26.859 27.5349 29.4083 27.8409 31.8481C28.0031 33.1431 28.6605 35.2409 28.7693 35.6218C28.8782 36.0027 28.9507 36.3513 28.9916 36.829C29.0533 37.5509 28.963 38.3709 28.8782 38.6808C28.7934 38.9907 28.6645 39.2171 28.5287 39.4363C28.076 40.1674 27.1556 40.6369 26.835 40.8323C26.5143 41.0277 26.2482 41.1649 25.9205 41.4433C25.0919 42.1472 24.565 42.7823 24.4068 43.7894C24.3652 44.0542 24.3567 44.3091 24.3634 44.5598C24.3701 44.8106 24.4294 45.2312 24.4857 45.4909C24.6308 46.1602 24.9805 46.8852 25.1175 47.125C25.2545 47.3648 25.4328 47.7191 25.5181 47.8682C25.6033 48.0174 26.6419 49.7902 26.8977 50.8507C26.956 51.0925 26.9788 51.3324 26.9815 51.5705C26.9842 51.8086 26.9224 52.3439 26.7539 52.77C26.5854 53.1961 26.2099 53.869 26.0307 54.4579C25.6512 55.7041 25.9984 56.9864 26.5621 58.1135C27.3897 59.7666 28.4365 60.8831 30.2005 61.9407C30.5078 62.1249 31.1997 62.4173 31.8382 62.7265C32.5852 63.0882 33.4656 63.5539 33.747 63.6607L33.8846 63.7173C34.7552 64.1876 35.6316 64.719 36.1192 65.1341C35.918 67.2385 35.5971 69.3302 35.1612 71.4006H36.3575C36.6766 69.6968 36.9221 67.9799 37.0866 66.2531C37.5297 61.6075 37.3751 56.9203 36.6407 52.3124C36.2222 49.6879 35.7007 46.9724 34.7014 44.5037C34.6584 44.3978 34.5088 44.4358 34.5298 44.5517C34.9488 46.8647 35.5089 49.1411 35.8364 51.4736C36.1662 53.8233 36.3454 56.1993 36.3835 58.5711C36.414 60.5288 36.3441 62.4843 36.1819 64.4311C34.5984 62.8523 31.2302 61.5967 29.7578 60.3455C28.9208 59.6335 28.2249 58.7744 27.7119 57.7971C27.0881 56.6066 26.8448 55.4266 27.4184 54.1714C27.9458 53.0158 28.3437 51.9923 28.0838 50.6964C27.8364 49.4629 27.1464 48.3711 26.5406 47.2925C25.9944 46.3193 25.4191 45.1193 25.6099 43.9651C25.7923 42.8629 26.7602 42.3088 27.6218 41.7729C28.4897 41.2324 29.3474 40.6286 29.821 39.6852C30.304 38.722 30.4617 37.5478 30.3452 36.48C30.0051 33.3563 27.9677 30.4924 30.5827 27.1283C30.9197 26.6942 31.3077 26.3058 31.7405 25.97C32.4875 25.3906 33.3142 24.9117 34.0396 24.3029C35.012 23.4863 35.6384 22.3977 36.3311 21.3498C36.7689 20.6875 37.281 20.0715 37.8904 19.5663C38.994 18.652 40.3118 18.0622 41.7143 17.8675C42.3264 17.7829 42.9497 17.7589 43.5366 17.5471C44.1142 17.3393 44.6125 17.0152 45.0879 16.6305C45.8599 16.0058 46.5016 15.2032 47.3475 14.675C48.2002 14.1413 49.2178 14.0508 50.1754 14.3233C52.2558 14.9154 53.3016 17.0125 53.1717 19.0924C53.0937 20.3381 52.4767 21.4208 51.9704 22.5298C51.4143 23.7456 50.9882 25.033 51.1965 26.3891C51.5613 28.7583 53.8052 29.5242 55.4869 30.7681C56.9539 31.8531 57.6551 33.7003 57.561 35.5023C57.5144 36.3827 57.2465 37.2441 56.7751 37.9874C56.1218 39.0162 55.1074 39.7572 54.4231 40.7693C53.734 41.7905 53.3796 43.1408 53.8644 44.3208C54.3116 45.409 55.3471 46.0839 56.1128 46.9258C57.5126 48.4653 58.614 50.8399 57.4387 52.8397C56.9203 53.7224 55.9439 54.1424 55.2561 54.863C54.3833 55.7778 54.1619 56.9498 54.3308 58.176C54.4845 59.2913 54.9747 60.4433 54.817 61.5822C54.6862 62.5332 54.1167 63.3498 53.4221 63.9744C51.5675 65.6438 48.8284 65.6741 46.489 65.8013L42.8291 66.0009C42.7198 65.2038 42.6414 64.399 42.5943 63.586C42.4707 61.4346 42.5056 59.2764 42.5513 57.1231C42.5943 55.1016 42.7113 53.0814 42.942 51.073C43.0715 49.9445 43.2239 48.8175 43.4192 47.6985C43.607 46.6239 43.943 45.5068 43.9735 44.415C43.9771 44.2833 43.7925 44.2357 43.7298 44.348C43.2651 45.1705 43.0558 46.1889 42.8573 47.1155C42.6387 48.1362 42.4415 49.161 42.2982 50.1958C42.0029 52.3318 41.8232 54.4869 41.6673 56.6379C41.363 60.8253 41.0713 65.1477 41.963 69.2849C42.1162 69.996 42.308 70.7049 42.5388 71.4006H44.1855C43.7145 70.1649 43.3547 68.8947 43.0966 67.5956C44.358 67.53 45.6193 67.4648 46.8806 67.3978C48.2437 67.3263 49.6211 67.2475 50.9555 66.9352C53.2411 66.4002 55.4452 64.9766 56.2294 62.6396Z" fill="white"/>
</svg>
