<svg width="84" height="84" viewBox="0 0 84 84" fill="none" xmlns="http://www.w3.org/2000/svg">
<circle cx="42" cy="42" r="42" fill="white"/>
<path d="M42.7546 27.915L47.6662 30.9001C48.4187 31.3574 48.9323 32.1221 49.0708 32.9917L53.4335 60.3717C53.59 61.3535 52.9209 62.2761 51.9392 62.4325L38.3074 64.6046C37.3257 64.7611 36.403 64.092 36.2466 63.1103L31.8838 35.7302C31.7453 34.8607 31.9957 33.9742 32.5688 33.3057L36.3095 28.942L42.7546 27.915ZM35.2353 29.1132L34.1737 22.4507C34.1424 22.2543 34.2762 22.0698 34.4726 22.0385L42.355 20.7825C42.5514 20.7512 42.7359 20.885 42.7672 21.0814L43.8288 27.7439L35.2353 29.1132Z" stroke="#314A2A" stroke-width="2"/>
</svg>
