<svg width="84" height="84" viewBox="0 0 84 84" fill="none" xmlns="http://www.w3.org/2000/svg">
<circle cx="42" cy="42" r="42" fill="#314A2A"/>
<path fill-rule="evenodd" clip-rule="evenodd" d="M40.1362 21.2386C41.9308 20.8912 43.9997 20.7991 45.6084 21.8116C47.9154 23.2663 48.1745 26.3893 48.0447 28.911C49.6393 26.8069 52.645 24.9403 55.2764 24.7602C58.9203 24.5104 62.532 27.1927 62.9758 31.3837C63.0091 32.1852 62.8763 33.2021 62.15 33.7627C61.3485 34.3821 60.3839 34.5125 59.4088 34.4601C61.507 35.803 62.6177 38.0111 63.423 40.4664C64.6001 44.0548 65.7016 47.6659 66.2876 51.4027L66.3064 51.5204C66.7427 54.3066 67.3478 58.1759 64.062 59.4281C63.6886 59.5712 63.2393 59.3276 63.0443 59.0171C61.076 55.8756 58.9242 52.755 56.2033 50.2073C53.8857 48.0349 51.1645 46.4835 49.7031 43.5428C49.0507 42.2281 48.6376 40.8175 48.4867 39.3579C48.4393 38.8917 48.3955 38.374 48.413 37.8606C47.2975 38.8734 46.3607 40.0788 45.6941 41.4162C45.7449 42.677 45.568 44.0502 45.4662 45.3249C45.2804 47.687 45.4188 49.7874 46.2886 52.0081C47.7008 55.6193 49.8114 58.8629 50.3062 62.7518L48.204 62.6136C47.7075 59.5213 45.8206 56.1918 44.5136 53.3281C44.0207 53.1831 43.6973 53.0827 43.3657 52.929C43.3308 52.9426 42.042 53.9927 41.5308 54.3751C40.8099 54.9181 40.0732 55.4102 39.2453 55.7786C37.707 56.4596 36.0002 56.8031 34.3163 56.6722C32.727 56.5483 31.1596 56.0624 29.8001 55.2244C29.4264 54.9939 29.0513 54.7097 28.6882 54.4041C28.6426 54.371 28.6071 54.3504 28.5528 54.3086C27.6212 53.5979 26.7361 52.2968 26.6905 51.986C26.6696 51.8341 26.8002 51.6807 26.8002 51.6807C27.8983 50.3572 29.0223 49.3701 30.6447 48.7066C32.1164 48.1042 33.808 47.8024 35.4008 47.9716C37.3587 48.1794 39.1719 49.0823 40.9175 49.931C41.8122 50.3658 43.0758 51.0668 43.9722 51.5033C43.4304 49.4798 43.4382 47.3307 43.7153 45.2618C43.9889 43.2292 43.8982 40.5255 43.621 38.512C42.8931 39.9106 41.6388 41.7105 40.4618 42.7601C38.4512 44.5517 36.2297 46.36 33.3911 46.36C30.6174 46.3618 28.2133 44.861 25.6677 43.9913C24.1874 43.4869 22.6615 43.4484 21.1532 43.1028C20.6253 42.9824 20.1229 42.799 19.6318 42.5912L19.529 42.5605C16.6292 41.6239 16.8256 41.1604 16.7998 41.0462C16.7998 41.041 16.8524 40.8249 16.9643 40.7495C19.043 39.3508 20.0135 36.5409 20.6889 34.2709C21.4012 31.8733 22.1897 29.3814 24.0229 27.574C27.6142 24.0343 32.96 26.1074 36.9513 27.7786C39.0089 28.6412 41.2665 29.7034 42.6787 31.486C43.8085 32.9126 44.5094 34.7168 44.9831 36.5066C45.111 35.8557 45.2318 35.2065 45.3686 34.5574C45.6019 33.4572 46.0022 32.2305 45.7952 31.1006C45.639 30.238 45.0957 29.5554 44.4588 28.9792C41.5483 26.3478 37.2362 25.6395 34.3574 22.9695C34.2828 22.9196 33.972 22.6117 33.965 22.6012C33.8109 22.4251 33.6999 22.2652 33.607 22.1135C33.4789 21.9074 33.4919 21.8468 33.7235 21.8014C33.9504 21.7554 34.7113 21.7998 34.7377 21.8014C35.5816 21.8014 36.4067 21.9496 37.2717 21.8099C38.2346 21.658 39.1803 21.4255 40.1362 21.2386ZM60.0221 37.4462C58.3799 35.1766 55.4258 34.6455 52.8418 35.3248C53.998 35.8504 55.0955 36.7513 55.8709 37.4428C58.0654 39.3985 59.746 41.8469 60.7845 44.5865C61.1653 45.5888 59.5877 45.9782 59.1929 45.023C57.9456 42.0058 55.9418 39.2458 53.2667 37.3302C52.6176 36.8657 51.7978 36.2683 50.9504 36.4673C50.0195 36.6858 49.7029 37.5476 49.7203 38.3296C49.7571 39.9326 50.1906 41.5299 50.9572 42.9374C52.5818 45.92 55.8447 47.8212 58.1307 50.238C60.2515 52.4783 62.3158 55.3893 64.0946 57.895C66.6539 55.8552 64.402 49.5939 63.9352 47.6817C63.509 45.9373 62.9901 44.2172 62.4533 42.5025C61.9287 40.8226 61.0695 38.8956 60.0221 37.4462ZM36.1083 49.5166C33.1067 49.1273 29.3911 49.7665 27.1736 51.9212C28.3226 52.6527 28.9033 53.6726 30.1239 54.324C31.4186 55.0155 32.9951 55.5793 34.467 55.5723C36.0405 55.567 38.4012 54.9167 39.7679 54.1364C40.5502 53.6894 41.4835 52.9743 42.2641 52.4208C41.9471 52.2586 38.2401 49.7923 36.1083 49.5166ZM34.1552 28.7558C32.2114 28.1498 29.5427 27.0154 27.5129 27.7923C25.8076 28.4454 24.7846 30.2384 24.0846 31.8083C23.1917 33.8113 22.6205 36.0173 21.3451 37.8316C20.4576 39.0974 19.6031 40.6381 18.2544 41.0939C19.335 41.3838 20.4243 41.8944 21.5593 41.9347C22.8398 41.9801 24.6993 42.3681 25.9572 42.6458C28.2028 43.1382 29.9938 44.2783 32.2569 44.6922C34.8197 45.158 37.0518 43.5718 38.9112 41.9654C40.8162 40.3187 42.5092 37.9404 42.5074 35.248C40.069 33.6521 36.5549 35.0188 34.2426 36.2184C32.7426 36.9954 31.2258 37.7092 29.6048 38.2017C28.842 38.4338 28.067 38.6244 27.2867 38.7798C26.4516 38.9439 25.6395 38.9133 24.7939 38.964C24.5192 38.9806 24.4746 38.5613 24.7322 38.495C25.7126 38.2383 26.6803 37.8393 27.6414 37.5093C28.608 37.1758 29.5542 36.7814 30.4717 36.3326C32.0979 35.5381 33.6117 34.5314 35.2431 33.7456C37.0923 32.8585 40.069 32.8058 42.0585 33.2494C41.8691 32.9997 41.4981 32.0825 40.5526 31.3701C39.3685 30.4761 38.3881 30.1908 37.2374 29.7858C36.2149 29.4262 35.19 29.077 34.1552 28.7558ZM49.4838 31.7248C48.9946 31.5939 48.3516 31.4085 47.8991 31.764C47.0922 32.3978 47.0608 33.9341 46.9311 34.5386C46.696 35.623 46.4248 36.6978 46.1687 37.777C46.9774 36.7817 48.2383 35.674 49.1891 35.0348C50.5645 34.1094 52.156 33.4999 53.791 33.2903C53.1858 33.1105 52.5764 32.9389 51.9835 32.7207C51.1505 32.4116 50.3432 31.957 49.4838 31.7248ZM55.1839 25.9965C52.798 26.0211 50.4863 27.5759 48.8653 29.1719C49.5127 28.8296 50.1868 28.5559 50.8973 28.3516C52.7935 27.8 54.8481 27.6076 56.611 28.6535C57.3671 29.1005 56.8589 29.9577 56.0045 29.6084C54.6645 29.0656 53.1216 29.006 51.6991 29.177C49.7899 29.4073 48.3632 30.4439 48.3 30.4645C50.0806 30.3371 51.5366 31.2113 52.9138 31.5815C54.6224 32.039 56.5347 32.9697 58.7834 32.9577C59.4165 32.9542 60.7149 32.8526 61.2557 32.4444C61.638 32.1564 61.8612 31.7768 61.8211 31.295C61.8053 31.0995 61.7986 30.9418 61.7337 30.6538C61.2495 27.9279 57.5891 25.9721 55.1839 25.9965ZM44.2258 22.6507C42.6224 22.0728 40.9311 22.2909 39.0997 22.6507C38.0963 22.8497 36.292 23.1611 35.1798 22.7598C37.0742 23.8475 39.2574 24.5785 41.2396 25.4218C43.022 26.1815 45.1821 27.4571 46.4873 28.9502C46.5398 29.0112 46.5771 29.0734 46.6244 29.1327C46.8244 26.7857 46.6609 23.5325 44.2258 22.6507Z" fill="white"/>
</svg>
